#!OML:ASF F:\VICON\USERDATA\INSTALL\rory3\rory3.ASF
:FULLY-SPECIFIED
:DEGREES
46
root 0.22692279188856534 17.8160769432172 20.35762899716803 -3.7707096606290813 -5.453618139570245 -4.764382622203421
lfemur -14.45778741575544 3.2840200878858976 -12.260194035781288
ltibia 58.71855341928554
lfoot -13.193030241846822 -5.758146607906063
ltoes -4.005920435116451
rfemur -8.579127200538135 6.326169456648118 29.966762830747932
rtibia 14.812787484534955
rfoot 2.5407503579545736 -5.296809064873024
rtoes 10.92237929413534
lowerback 10.6998770444402 1.031066601356215 3.7979627851022366
upperback 0.34185941275054693 2.12181943838397 2.0583867647875396
thorax -5.463770089131688 1.0086419643721154 -0.34656836078992415
lowerneck -16.26810699616814 -3.1510613581493274 -1.4441845419665058
upperneck 21.340299465032178 -4.159645479155358 0.8009895659107777
head 9.540722328760666 -1.9965347946551821 -0.056409906491586066
lclavicle 6.563340694548757e-16 -1.0577713895669155e-16
lhumerus -35.19551458729032 8.765118358917604 81.66093835027603
lradius 22.059182342136733
lwrist 7.9551171894608945
lhand -29.220291688781458 19.680313431986885
lfingers 7.12502
lthumb -2.511759016475153 50.24505596043602
rclavicle 6.563340694400048e-16 -1.0577713896917497e-16
rhumerus -24.06107999022797 -10.530453146545465 -77.4564980452137
rradius 33.742261282689014
rwrist 4.833931526392319
rhand -17.718776387966926 22.109722670017295
rfingers 7.12502
rthumb 8.599628698524274 -7.907511499078685
47
root 0.2533541992612975 17.83354958553422 21.666007464631782 -3.1980595980810875 -4.424279710119627 -5.937737051394805
lfemur -16.245818758135698 3.04704036391304 -11.859935101926578
ltibia 57.66556625508716
lfoot -14.05846446374398 -5.833680437170868
ltoes -4.709134180942186
rfemur -6.774834058641938 5.9375221421100095 30.583509392528356
rtibia 15.286135907715728
rfoot 1.8130486421942145 -5.069997809406868
rtoes 9.081738875634038
lowerback 10.619942790486721 1.157954461290646 4.946942423681375
upperback 0.28513051771128695 2.403327437052783 2.0521150393149767
thorax -5.526014898309577 1.1397043073631101 -0.6456219532939647
lowerneck -16.22794744828659 -3.133527107757931 -1.4427850195307386
upperneck 21.32355330172508 -4.121741624512394 0.7626595687814862
head 9.522606139167099 -1.9824401428165737 -0.05572039217529807
lclavicle 6.563340694501819e-16 -1.0577713896144532e-16
lhumerus -34.978193499790756 8.833410890032381 81.48056505095302
lradius 22.155707332384598
lwrist 7.775899106709232
lhand -28.930863064752163 20.57200720253394
lfingers 7.12502
lthumb -2.031187503096293 51.514680473442965
rclavicle 6.56334069445624e-16 -1.0577713896482435e-16
rhumerus -24.10413749623926 -10.33092627828869 -78.12776040510981
rradius 33.66217626749346
rwrist 4.668203890597066
rhand -17.724026875255234 22.121776423737586
rfingers 7.12502
rthumb 8.558229422435714 -8.005913564307429
48
root 0.27837724045361273 17.852741961625107 22.102010635243555 -2.877722212453628 -3.660506474575187 -6.797806223523205
lfemur -17.843729160073785 2.7309149005569795 -11.721820334537362
ltibia 56.41189950303746
lfoot -14.699979367197054 -5.7941121187695686
ltoes -2.2907681564121964
rfemur -5.040312232946305 5.536641110152432 30.96374216952497
rtibia 16.115375951651586
rfoot 1.0338632692099736 -5.131109205678012
rtoes 8.181464538460324
lowerback 10.535738247586096 1.2940159750966025 5.73113825134447
upperback 0.2530814703955061 2.697574445084599 2.0554685337683556
thorax -5.529743622840046 1.2625287482199683 -0.9572825564805387
lowerneck -16.25821497086983 -3.119256070905404 -1.433377382018342
upperneck 21.36024616412157 -4.086738351146913 0.72499112028278
head 9.546199633415348 -1.9659550998460453 -0.05800073490321234
lclavicle 6.563340694471506e-16 -1.0577713896478909e-16
lhumerus -34.595247641511776 8.966788404555018 81.24475356546681
lradius 22.27306777219704
lwrist 7.861080021986767
lhand -28.7681686171726 20.76715060029897
lfingers 7.12502
lthumb -1.8116841075391419 51.62401687529618
rclavicle 6.563340694453201e-16 -1.057771389657938e-16
rhumerus -24.12095123812788 -10.186964140856052 -78.8555527669508
rradius 33.49295635110251
rwrist 4.5462664638801185
rhand -17.758686998826025 22.105062719909903
rfingers 7.12502
rthumb 8.50540853501021 -7.895469950082557
49
root 0.2838211716385811 17.87641676464134 22.05018643213365 -2.558861147135889 -3.129842756088058 -7.727629329967938
lfemur -19.28284066214409 2.3550848375731084 -11.588726774125064
ltibia 55.13910095361284
lfoot -15.197443429335117 -5.702955521226767
ltoes -0.3698823977592287
rfemur -3.435560310591507 5.227468563320465 31.427124172923747
rtibia 16.71214065498468
rfoot 0.29470258804472493 -5.305981395255845
rtoes 7.0543032154968515
lowerback 10.422956386469904 1.4677127639968557 6.536690818926372
upperback 0.21026547212899355 2.9780944985862963 2.042562661948871
thorax -5.553242602567367 1.368815322473727 -1.2545631764915124
lowerneck -16.27578214699067 -3.1048487628591825 -1.4335506749338318
upperneck 21.413440797599357 -4.053982884910544 0.6581455307886661
head 9.557596545810547 -1.955199202597454 -0.0763681528693343
lclavicle 6.563340694478187e-16 -1.05777138964869e-16
lhumerus -34.06292698148096 9.194074388657842 80.9844624734979
lradius 22.37373010361496
lwrist 8.149109256328023
lhand -28.679494225096615 21.433910950872175
lfingers 7.12502
lthumb -1.6617403966415591 52.167856908398534
rclavicle 6.563340694496294e-16 -1.057771389626502e-16
rhumerus -24.321499050753665 -10.019873554327063 -79.11586177092472
rradius 33.18046047074095
rwrist 3.7483877718498904
rhand -17.74507039977613 22.24306066042538
rfingers 7.12502
rthumb 8.493997198362447 -7.651285337219495
